<mxfile host="app.diagrams.net" modified="2020-07-14T11:19:49.948Z" agent="5.0 (Macintosh; Intel Mac OS X 10_15_5) AppleWebKit/537.36 (KHTML, like Gecko) Chrome/83.0.4103.116 Safari/537.36" etag="cVg2pt4hZ2DxXuDJKop8" version="13.4.2" type="github">
  <diagram id="O9gGdLm4JIvQnU_qlHux" name="Page-1">
    <mxGraphModel dx="2066" dy="1105" grid="1" gridSize="10" guides="1" tooltips="1" connect="1" arrows="1" fold="1" page="1" pageScale="1" pageWidth="827" pageHeight="1169" math="0" shadow="0">
      <root>
        <mxCell id="0" />
        <mxCell id="1" parent="0" />
        <mxCell id="Quoz_5NAdyj4JF_DvY3c-1" value="" style="rounded=0;whiteSpace=wrap;html=1;gradientColor=#b3b3b3;fillColor=#f5f5f5;strokeColor=#666666;" vertex="1" parent="1">
          <mxGeometry x="600" y="200" width="90" height="500" as="geometry" />
        </mxCell>
        <mxCell id="Quoz_5NAdyj4JF_DvY3c-6" style="rounded=0;orthogonalLoop=1;jettySize=auto;html=1;" edge="1" parent="1" source="Quoz_5NAdyj4JF_DvY3c-2">
          <mxGeometry relative="1" as="geometry">
            <mxPoint x="750" y="200" as="targetPoint" />
          </mxGeometry>
        </mxCell>
        <mxCell id="Quoz_5NAdyj4JF_DvY3c-2" value="" style="rounded=0;whiteSpace=wrap;html=1;" vertex="1" parent="1">
          <mxGeometry x="615" y="220" width="60" height="20" as="geometry" />
        </mxCell>
        <mxCell id="Quoz_5NAdyj4JF_DvY3c-3" value="" style="rounded=0;whiteSpace=wrap;html=1;gradientColor=#ffa500;fillColor=#ffcd28;strokeColor=#d79b00;" vertex="1" parent="1">
          <mxGeometry x="615" y="250" width="60" height="50" as="geometry" />
        </mxCell>
        <mxCell id="Quoz_5NAdyj4JF_DvY3c-7" style="edgeStyle=none;rounded=0;orthogonalLoop=1;jettySize=auto;html=1;" edge="1" parent="1" source="Quoz_5NAdyj4JF_DvY3c-4">
          <mxGeometry relative="1" as="geometry">
            <mxPoint x="750" y="350" as="targetPoint" />
          </mxGeometry>
        </mxCell>
        <mxCell id="Quoz_5NAdyj4JF_DvY3c-4" value="" style="rounded=0;whiteSpace=wrap;html=1;" vertex="1" parent="1">
          <mxGeometry x="615" y="320" width="60" height="170" as="geometry" />
        </mxCell>
        <mxCell id="Quoz_5NAdyj4JF_DvY3c-5" value="" style="rounded=0;whiteSpace=wrap;html=1;gradientColor=#d5739d;fillColor=#e6d0de;strokeColor=#996185;" vertex="1" parent="1">
          <mxGeometry x="615" y="510" width="60" height="170" as="geometry" />
        </mxCell>
        <mxCell id="2" value="10k free spae" style="text;html=1;align=center;verticalAlign=middle;resizable=0;points=[];autosize=1;" vertex="1" parent="1">
          <mxGeometry x="740" y="180" width="90" height="20" as="geometry" />
        </mxCell>
        <mxCell id="Quoz_5NAdyj4JF_DvY3c-8" value="40k free space" style="text;html=1;align=center;verticalAlign=middle;resizable=0;points=[];autosize=1;" vertex="1" parent="1">
          <mxGeometry x="750" y="320" width="90" height="20" as="geometry" />
        </mxCell>
      </root>
    </mxGraphModel>
  </diagram>
</mxfile>
